<?xml version="1.0" encoding="UTF-8" standalone="no"?>
<!DOCTYPE svg PUBLIC "-//W3C//DTD SVG 1.1//EN" "http://www.w3.org/Graphics/SVG/1.1/DTD/svg11.dtd">
<svg width="100%" height="100%" viewBox="0 0 2944 2721" version="1.1" xmlns="http://www.w3.org/2000/svg" xmlns:xlink="http://www.w3.org/1999/xlink" xml:space="preserve" xmlns:serif="http://www.serif.com/" style="fill-rule:evenodd;clip-rule:evenodd;stroke-linecap:round;stroke-linejoin:round;stroke-miterlimit:1.5;">
    <g transform="matrix(1,0,0,1,-64177,0)">
        <g id="Artboard3" transform="matrix(1,0,0,2.044583,-0.620087,-1.657864)">
            <rect x="64177.62" y="0.811" width="2943.686" height="1330.62" style="fill:none;"/>
            <g transform="matrix(0.738738,-0,0,3.286569,59384.153013,-12115.14876)">
                <g transform="matrix(0.920521,0,0,0.920521,101.583768,-233.206294)">
                    <g transform="matrix(1.470538,0,0,0.149166,-44751.026359,4256.536531)">
                        <path d="M36906.984,730.789C36954.132,730.919 36993.522,731.076 37023.477,731.263C37028.376,731.294 37027.852,740.559 37027.852,745.6C37027.852,765.868 37044.306,782.323 37064.574,782.323C37084.842,782.323 37101.296,765.868 37101.296,745.6C37101.296,740.559 37101.628,731.49 37106.487,731.38C37210.657,729.01 37726.316,731.38 37726.316,731.38C37768.155,731.38 37802.124,765.348 37802.124,807.188L37802.124,897.602C37789.851,897.602 37779.887,907.566 37779.887,919.839C37779.887,932.111 37789.851,942.075 37802.124,942.075L37802.124,989.377C37789.851,989.377 37779.887,999.341 37779.887,1011.613C37779.887,1023.886 37789.851,1033.85 37802.124,1033.85L37802.124,1081.152C37789.851,1081.152 37779.887,1091.116 37779.887,1103.388C37779.887,1115.661 37789.851,1125.625 37802.124,1125.625L37802.124,1172.927C37789.851,1172.927 37779.887,1182.891 37779.887,1195.163C37779.887,1207.436 37789.851,1217.4 37802.124,1217.4L37802.124,1264.701C37789.851,1264.701 37779.887,1274.665 37779.887,1286.938C37779.887,1299.211 37789.851,1309.175 37802.124,1309.175L37802.124,1356.476C37789.851,1356.476 37779.887,1366.44 37779.887,1378.713C37779.887,1390.986 37789.851,1400.95 37802.124,1400.95L37802.124,1448.251C37789.851,1448.251 37779.887,1458.215 37779.887,1470.488C37779.887,1482.761 37789.851,1492.724 37802.124,1492.724L37802.124,1540.026C37789.851,1540.026 37779.887,1549.99 37779.887,1562.263C37779.887,1574.535 37789.851,1584.499 37802.124,1584.499L37802.124,1631.801C37789.851,1631.801 37779.887,1641.765 37779.887,1654.038C37779.887,1666.31 37789.851,1676.274 37802.124,1676.274L37802.124,1723.576C37789.851,1723.576 37779.887,1733.54 37779.887,1745.812C37779.887,1758.085 37789.851,1768.049 37802.124,1768.049L37802.124,1815.351C37789.851,1815.351 37779.887,1825.315 37779.887,1837.587C37779.887,1849.86 37789.851,1859.824 37802.124,1859.824L37802.124,1907.126C37789.851,1907.126 37779.887,1917.09 37779.887,1929.362C37779.887,1941.635 37789.851,1951.599 37802.124,1951.599L37802.124,1998.9C37789.851,1998.9 37779.887,2008.864 37779.887,2021.137C37779.887,2033.41 37789.851,2043.374 37802.124,2043.374L37802.124,2128.419C37802.124,2170.259 37768.155,2204.228 37726.316,2204.228C37726.316,2204.228 37209.491,2205.913 37105.321,2204.228C37101.901,2204.172 37101.296,2197.625 37101.296,2194.119C37101.296,2173.852 37084.842,2157.397 37064.574,2157.397C37044.306,2157.397 37027.852,2173.852 37027.852,2194.119C37027.852,2197.625 37025.754,2204.213 37022.334,2204.228C36992.616,2204.36 36953.621,2204.471 36906.984,2204.564L36906.984,730.789Z" style="fill:rgb(250,247,237);"/>
                    </g>
                    <g transform="matrix(1.470538,0,0,0.149166,-43802.164804,4256.536531)">
                        <path d="M36273.696,2205.064C35599.467,2205.07 34751.623,2204.315 34751.623,2204.315C34709.783,2204.315 34675.815,2170.346 34675.815,2128.507L34675.815,2043.461C34688.087,2043.461 34698.051,2033.497 34698.051,2021.224C34698.051,2008.952 34688.087,1998.988 34675.815,1998.988L34675.815,1951.686C34688.087,1951.686 34698.051,1941.722 34698.051,1929.449C34698.051,1917.177 34688.087,1907.213 34675.815,1907.213L34675.815,1859.911C34688.087,1859.911 34698.051,1849.947 34698.051,1837.675C34698.051,1825.402 34688.087,1815.438 34675.815,1815.438L34675.815,1768.136C34688.087,1768.136 34698.051,1758.172 34698.051,1745.9C34698.051,1733.627 34688.087,1723.663 34675.815,1723.663L34675.815,1676.361C34688.087,1676.361 34698.051,1666.398 34698.051,1654.125C34698.051,1641.852 34688.087,1631.888 34675.815,1631.888L34675.815,1584.587C34688.087,1584.587 34698.051,1574.623 34698.051,1562.35C34698.051,1550.077 34688.087,1540.113 34675.815,1540.113L34675.815,1492.812C34688.087,1492.812 34698.051,1482.848 34698.051,1470.575C34698.051,1458.302 34688.087,1448.338 34675.815,1448.338L34675.815,1401.037C34688.087,1401.037 34698.051,1391.073 34698.051,1378.8C34698.051,1366.528 34688.087,1356.564 34675.815,1356.564L34675.815,1309.262C34688.087,1309.262 34698.051,1299.298 34698.051,1287.025C34698.051,1274.753 34688.087,1264.789 34675.815,1264.789L34675.815,1217.487C34688.087,1217.487 34698.051,1207.523 34698.051,1195.25C34698.051,1182.978 34688.087,1173.014 34675.815,1173.014L34675.815,1125.712C34688.087,1125.712 34698.051,1115.748 34698.051,1103.476C34698.051,1091.203 34688.087,1081.239 34675.815,1081.239L34675.815,1033.937C34688.087,1033.937 34698.051,1023.973 34698.051,1011.701C34698.051,999.428 34688.087,989.464 34675.815,989.464L34675.815,942.162C34688.087,942.162 34698.051,932.199 34698.051,919.926C34698.051,907.653 34688.087,897.689 34675.815,897.689L34675.815,807.275C34675.815,765.435 34709.783,731.467 34751.623,731.467C34751.623,731.467 35599.266,730.353 36273.696,730.327L36273.696,2205.064Z" style="fill:rgb(250,247,237);"/>
                    </g>
                    <g transform="matrix(1.360284,0,0,0.149545,-40875.295383,3707.811541)">
                        <path d="M37218.964,4458.815L37218.964,5821.483" style="fill:none;stroke:rgb(156,160,137);stroke-width:9.46px;stroke-dasharray:18.918,37.837,0,0,0,0;"/>
                    </g>
                    <g transform="matrix(1.353661,0,0,0.148817,-39336.343145,3722.874745)">
                        <g transform="matrix(55.752685,0,0,55.752685,35035.882286,4484.308146)">
                        </g>
                        <text x="34564.716px" y="4484.308px" style="font-family:'Poppins-SemiBold', 'Poppins';font-weight:600;font-size:55.753px;fill:rgb(105,124,88);">H<tspan x="34609.542px 34629.891px 34654.478px 34672.598px 34692.948px 34708.67px 34763.642px 34781.762px 34826.531px 34881.503px 34925.213px 34955.654px 34995.963px " y="4484.308px 4484.308px 4484.308px 4484.308px 4484.308px 4484.308px 4484.308px 4484.308px 4484.308px 4484.308px 4484.308px 4484.308px 4484.308px ">I! I&apos;M AMULYA</tspan></text>
                    </g>
                    <g transform="matrix(1.00637,0,0,0.110637,-24889.359859,3921.98943)">
                        <g transform="matrix(55.752685,0,0,55.752685,34926.662777,4484.308146)">
                        </g>
                        <text x="34564.716px" y="4484.308px" style="font-family:'Poppins-SemiBold', 'Poppins';font-weight:600;font-size:55.753px;fill:rgb(105,124,88);">I<tspan x="34583.561px 34600.175px 34643.439px 34696.906px 34713.52px 34756.784px 34785.72px 34823.019px 34870.13px 34886.744px " y="4484.308px 4484.308px 4484.308px 4484.308px 4484.308px 4484.308px 4484.308px 4484.308px 4484.308px 4484.308px "> AM ALSO A</tspan></text>
                    </g>
                    <g transform="matrix(1.00637,0,0,0.110637,-24889.359859,3974.391753)">
                        <g transform="matrix(55.752685,0,0,55.752685,35129.769807,4484.308146)">
                        </g>
                        <text x="34564.716px" y="4484.308px" style="font-family:'Poppins-SemiBold', 'Poppins';font-weight:600;font-size:55.753px;fill:rgb(105,124,88);">W<tspan x="34625.152px 34643.997px 34679.511px 34722.831px 34739.445px 34758.29px 34802.613px 34838.128px 34871.133px 34910.216px 34943.221px 34980.52px 35016.034px 35053.333px 35069.947px 35088.792px " y="4484.308px 4484.308px 4484.308px 4484.308px 4484.308px 4484.308px 4484.308px 4484.308px 4484.308px 4484.308px 4484.308px 4484.308px 4484.308px 4484.308px 4484.308px 4484.308px ">ITH INTERESTS IN</tspan></text>
                    </g>
                    <g transform="matrix(1.283257,0,0,0.141077,-37131.10783,3887.992254)">
                        <text x="34747.975px" y="4484.308px" style="font-family:'Poppins-Regular', 'Poppins';font-size:55.753px;fill:rgb(33,50,40);">I<tspan x="34763.865px 34774.904px 34834.504px 34851.564px 34891.427px 34908.487px 34968.087px 35005.943px 35021.833px 35044.301px 35060.19px 35100.054px 35115.943px 35147.22px 35183.237px 35199.126px 35238.989px 35254.879px 35270.768px 35308.624px 35348.488px 35371.458px 35405.021px 35422.081px 35461.944px 35498.685px 35529.963px 35545.852px 35585.715px 35623.571px 35660.312px " y="4484.308px 4484.308px 4484.308px 4484.308px 4484.308px 4484.308px 4484.308px 4484.308px 4484.308px 4484.308px 4484.308px 4484.308px 4484.308px 4484.308px 4484.308px 4484.308px 4484.308px 4484.308px 4484.308px 4484.308px 4484.308px 4484.308px 4484.308px 4484.308px 4484.308px 4484.308px 4484.308px 4484.308px 4484.308px 4484.308px 4484.308px ">&apos;m a multidisciplinary designer</tspan></text>
                        <text x="34747.975px" y="4565.879px" style="font-family:'Poppins-Regular', 'Poppins';font-size:55.753px;fill:rgb(33,50,40);">w<tspan x="34795.867px 34833.723px 34871.579px 34888.639px 34919.917px 34942.385px 34982.248px 35005.218px 35027.687px 35058.964px 35076.024px 35112.765px 35146.217px 35182.958px 35205.928px 35239.491px 35256.551px 35296.415px 35319.385px 35357.241px 35373.242px 35409.983px 35445.999px 35468.467px 35485.528px 35533.419px 35549.309px 35571.777px 35609.633px 35626.693px " y="4565.879px 4565.879px 4565.879px 4565.879px 4565.879px 4565.879px 4565.879px 4565.879px 4565.879px 4565.879px 4565.879px 4565.879px 4565.879px 4565.879px 4565.879px 4565.879px 4565.879px 4565.879px 4565.879px 4565.879px 4565.879px 4565.879px 4565.879px 4565.879px 4565.879px 4565.879px 4565.879px 4565.879px 4565.879px 4565.879px ">ho starts every project with a</tspan></text>
                        <text x="34747.975px" y="4647.449px" style="font-family:'Poppins-Regular', 'Poppins';font-size:55.753px;fill:rgb(33,50,40);">q<tspan x="34787.839px 34825.695px 34862.436px 34893.713px 34916.181px 34932.071px 34969.927px 35007.783px 35024.843px 35062.699px 35083.216px 35100.277px 35148.168px 35186.024px 35219.587px 35236.648px 35276.511px 35313.252px 35351.108px 35390.971px 35406.861px 35443.602px 35460.662px 35500.525px 35537.266px 35575.122px 35614.985px 35648.437px " y="4647.449px 4647.449px 4647.449px 4647.449px 4647.449px 4647.449px 4647.449px 4647.449px 4647.449px 4647.449px 4647.449px 4647.449px 4647.449px 4647.449px 4647.449px 4647.449px 4647.449px 4647.449px 4647.449px 4647.449px 4647.449px 4647.449px 4647.449px 4647.449px 4647.449px 4647.449px 4647.449px 4647.449px ">uestion of why people behave</tspan></text>
                        <g transform="matrix(55.752685,0,0,55.752685,35534.255534,4729.01992)">
                        </g>
                        <text x="34747.975px" y="4729.02px" style="font-family:'Poppins-Regular', 'Poppins';font-size:55.753px;fill:rgb(33,50,40);">a<tspan x="34787.839px 34825.695px 34865.558px 34882.618px 34905.086px 34942.943px 34958.832px 34996.688px 35027.575px 35044.635px 35067.104px 35104.96px 35141.701px 35158.761px 35206.653px 35246.516px 35280.079px 35297.139px 35319.608px 35357.464px 35394.205px 35427.768px 35444.828px 35484.691px 35522.547px " y="4729.02px 4729.02px 4729.02px 4729.02px 4729.02px 4729.02px 4729.02px 4729.02px 4729.02px 4729.02px 4729.02px 4729.02px 4729.02px 4729.02px 4729.02px 4729.02px 4729.02px 4729.02px 4729.02px 4729.02px 4729.02px 4729.02px 4729.02px 4729.02px 4729.02px ">nd think the way they do.</tspan></text>
                    </g>
                    <g transform="matrix(1.414624,0,0,0.155519,-39260.40457,3732.514588)">
                        <text x="34747.975px" y="4484.308px" style="font-family:'Poppins-Medium', 'Poppins';font-weight:500;font-size:55.753px;fill:rgb(33,50,40);">D<tspan x="34786.947px 34820.788px 34850.003px 34864.164px 34901.407px 34937.033px 34970.875px " y="4484.308px 4484.308px 4484.308px 4484.308px 4484.308px 4484.308px 4484.308px ">esigner</tspan></text>
                        <text x="34747.975px" y="4552.089px" style="font-family:'Poppins-Medium', 'Poppins';font-weight:500;font-size:55.753px;fill:rgb(33,50,40);">S<tspan x="34781.093px 34801.275px 34836.288px 34857.139px 34889.03px 34909.212px 34943.054px 34957.215px 34971.376px 35005.218px " y="4552.089px 4552.089px 4552.089px 4552.089px 4552.089px 4552.089px 4552.089px 4552.089px 4552.089px 4552.089px ">toryteller</tspan></text>
                        <g transform="matrix(55.752685,0,0,55.752685,35219.75464,4619.869697)">
                        </g>
                        <text x="34747.975px" y="4619.87px" style="font-family:'Poppins-Medium', 'Poppins';font-weight:500;font-size:55.753px;fill:rgb(33,50,40);">B<tspan x="34782.542px 34818.168px 34847.382px 34861.544px 34897.17px 34931.011px 34960.226px 34989.44px 35003.378px 35036.496px 35056.678px 35092.304px 35129.547px 35163.389px 35199.015px " y="4619.87px 4619.87px 4619.87px 4619.87px 4619.87px 4619.87px 4619.87px 4619.87px 4619.87px 4619.87px 4619.87px 4619.87px 4619.87px 4619.87px 4619.87px ">usiness Student</tspan></text>
                    </g>
                    <g transform="matrix(1.414624,0,0,0.155519,-39260.40457,3784.916911)">
                        <text x="34747.975px" y="4484.308px" style="font-family:'Poppins-Medium', 'Poppins';font-weight:500;font-size:55.753px;fill:rgb(33,50,40);">C<tspan x="34790.515px 34811.366px 34846.379px 34879.273px 34914.899px 34948.741px " y="4484.308px 4484.308px 4484.308px 4484.308px 4484.308px 4484.308px ">rochet</tspan></text>
                        <g transform="matrix(55.752685,0,0,55.752685,35088.903089,4552.088921)">
                        </g>
                        <text x="34747.975px" y="4552.089px" style="font-family:'Poppins-Medium', 'Poppins';font-weight:500;font-size:55.753px;fill:rgb(33,50,40);">S<tspan x="34781.093px 34813.987px 34834.838px 34868.68px 34902.522px 34938.148px 34952.086px 34982.973px 34997.134px 35054.504px " y="4552.089px 4552.089px 4552.089px 4552.089px 4552.089px 4552.089px 4552.089px 4552.089px 4552.089px 4552.089px ">creen Time</tspan></text>
                    </g>
                    <g transform="matrix(1.001745,0,0,0.110129,-27240.505525,3896.357075)">
                        <path d="M35329.857,4462.258L36716.092,4462.258" style="fill:none;stroke:rgb(170,178,153);stroke-width:5.3px;"/>
                    </g>
                    <g transform="matrix(1.109909,0,0,0.12202,-31740.415425,3955.635914)">
                        <path d="M35329.857,4462.258L36716.092,4462.258" style="fill:none;stroke:rgb(170,178,153);stroke-width:4.79px;"/>
                    </g>
                    <g transform="matrix(1.353661,0,0,0.148817,-39680.051725,3722.864711)">
                        <circle cx="35975.612" cy="5222.89" r="10.364" style="fill:rgb(170,178,153);"/>
                    </g>
                    <g transform="matrix(0.41954,0,0,0.053742,-4926.498334,4147.967325)">
                        <path d="M35329.857,4462.258L36716.092,4462.258" style="fill:none;stroke:rgb(170,178,153);stroke-width:11.67px;"/>
                    </g>
                    <g transform="matrix(1.353661,0,0,0.148817,-38715.948095,3722.646332)">
                        <g transform="matrix(258.333333,0,0,258.333333,34130.039901,4823.406964)">
                            <path d="M0.318,-0.645C0.3,-0.644 0.286,-0.641 0.276,-0.635C0.265,-0.63 0.258,-0.62 0.254,-0.606C0.25,-0.592 0.248,-0.572 0.248,-0.546L0.248,-0.149C0.248,-0.131 0.247,-0.114 0.247,-0.099C0.246,-0.083 0.245,-0.071 0.244,-0.063C0.255,-0.064 0.268,-0.065 0.283,-0.065C0.298,-0.065 0.31,-0.066 0.318,-0.066L0.318,-0L0.052,-0L0.052,-0.055C0.07,-0.056 0.085,-0.059 0.095,-0.065C0.105,-0.07 0.112,-0.08 0.116,-0.095C0.12,-0.109 0.122,-0.128 0.122,-0.154L0.122,-0.553C0.122,-0.57 0.122,-0.586 0.123,-0.601C0.124,-0.616 0.125,-0.628 0.126,-0.637C0.115,-0.637 0.102,-0.636 0.087,-0.636C0.072,-0.635 0.061,-0.635 0.052,-0.634L0.052,-0.7L0.318,-0.7L0.318,-0.645Z" style="fill:rgb(48,74,57);fill-rule:nonzero;"/>
                        </g>
                        <g transform="matrix(258.333333,0,0,258.333333,34223.556568,4823.406964)">
                        </g>
                        <g transform="matrix(258.333333,0,0,258.333333,34289.431568,4823.406964)">
                            <path d="M0.264,0.016C0.233,0.016 0.205,0.012 0.178,0.004C0.151,-0.004 0.13,-0.013 0.114,-0.025L0.117,0.007L0.052,0.007L0.047,-0.165L0.101,-0.165C0.103,-0.143 0.111,-0.122 0.125,-0.104C0.139,-0.085 0.157,-0.071 0.179,-0.061C0.202,-0.05 0.227,-0.045 0.254,-0.045C0.267,-0.045 0.28,-0.047 0.292,-0.051C0.305,-0.055 0.315,-0.062 0.324,-0.071C0.332,-0.08 0.336,-0.091 0.336,-0.105C0.336,-0.119 0.331,-0.131 0.322,-0.141C0.312,-0.15 0.299,-0.159 0.281,-0.167C0.264,-0.175 0.243,-0.183 0.22,-0.192C0.199,-0.2 0.179,-0.209 0.158,-0.217C0.137,-0.226 0.118,-0.236 0.101,-0.249C0.083,-0.261 0.069,-0.276 0.059,-0.294C0.049,-0.312 0.043,-0.334 0.043,-0.36C0.043,-0.378 0.047,-0.396 0.053,-0.414C0.06,-0.432 0.071,-0.449 0.085,-0.465C0.099,-0.48 0.118,-0.492 0.141,-0.502C0.164,-0.511 0.193,-0.516 0.226,-0.516C0.244,-0.516 0.264,-0.513 0.287,-0.507C0.309,-0.502 0.329,-0.492 0.347,-0.479L0.346,-0.511L0.411,-0.511L0.411,-0.335L0.357,-0.335C0.354,-0.358 0.347,-0.379 0.335,-0.397C0.324,-0.416 0.309,-0.43 0.29,-0.441C0.271,-0.452 0.249,-0.457 0.223,-0.457C0.202,-0.457 0.184,-0.452 0.169,-0.441C0.154,-0.431 0.147,-0.416 0.147,-0.396C0.147,-0.379 0.152,-0.365 0.164,-0.355C0.175,-0.344 0.191,-0.335 0.21,-0.328C0.229,-0.321 0.25,-0.313 0.273,-0.304C0.304,-0.293 0.333,-0.28 0.358,-0.266C0.384,-0.252 0.404,-0.234 0.42,-0.213C0.435,-0.192 0.443,-0.167 0.443,-0.136C0.443,-0.101 0.434,-0.073 0.417,-0.051C0.4,-0.028 0.377,-0.012 0.35,-0.001C0.323,0.011 0.294,0.016 0.264,0.016Z" style="fill:rgb(48,74,57);fill-rule:nonzero;"/>
                        </g>
                        <g transform="matrix(258.333333,0,0,258.333333,34410.848235,4823.406964)">
                            <path d="M0.288,0.016C0.24,0.016 0.197,0.006 0.159,-0.015C0.121,-0.036 0.09,-0.066 0.068,-0.104C0.045,-0.143 0.034,-0.188 0.034,-0.239C0.034,-0.293 0.046,-0.341 0.068,-0.383C0.091,-0.425 0.121,-0.457 0.16,-0.481C0.198,-0.504 0.24,-0.516 0.286,-0.516C0.334,-0.516 0.376,-0.505 0.414,-0.484C0.452,-0.463 0.482,-0.433 0.505,-0.395C0.527,-0.357 0.538,-0.312 0.538,-0.26C0.538,-0.206 0.527,-0.157 0.506,-0.116C0.484,-0.074 0.454,-0.042 0.417,-0.019C0.379,0.004 0.336,0.016 0.288,0.016ZM0.293,-0.045C0.323,-0.045 0.346,-0.055 0.362,-0.073C0.378,-0.092 0.389,-0.116 0.396,-0.145C0.402,-0.174 0.405,-0.203 0.405,-0.234C0.405,-0.26 0.403,-0.287 0.399,-0.313C0.394,-0.34 0.388,-0.364 0.378,-0.386C0.369,-0.407 0.357,-0.425 0.341,-0.438C0.326,-0.451 0.307,-0.457 0.285,-0.457C0.256,-0.456 0.233,-0.447 0.215,-0.428C0.198,-0.409 0.185,-0.386 0.178,-0.357C0.17,-0.328 0.166,-0.298 0.166,-0.266C0.166,-0.23 0.171,-0.195 0.179,-0.161C0.188,-0.126 0.202,-0.098 0.22,-0.077C0.239,-0.055 0.263,-0.044 0.293,-0.045Z" style="fill:rgb(48,74,57);fill-rule:nonzero;"/>
                        </g>
                        <g transform="matrix(258.333333,0,0,258.333333,34555.773235,4823.406964)">
                            <path d="M0.028,-0.053C0.047,-0.053 0.061,-0.057 0.069,-0.066C0.078,-0.074 0.083,-0.086 0.084,-0.101C0.086,-0.116 0.087,-0.134 0.087,-0.153L0.087,-0.585C0.087,-0.597 0.087,-0.609 0.088,-0.623C0.088,-0.636 0.089,-0.65 0.091,-0.665C0.08,-0.664 0.067,-0.663 0.054,-0.663C0.04,-0.663 0.029,-0.662 0.02,-0.661L0.02,-0.726C0.051,-0.726 0.076,-0.728 0.096,-0.731C0.115,-0.734 0.13,-0.738 0.141,-0.742C0.152,-0.746 0.16,-0.751 0.165,-0.755L0.21,-0.755L0.211,-0.143C0.211,-0.132 0.21,-0.119 0.21,-0.104C0.209,-0.09 0.208,-0.075 0.206,-0.061C0.217,-0.062 0.229,-0.063 0.241,-0.064C0.253,-0.064 0.263,-0.064 0.271,-0.064L0.271,-0L0.028,-0L0.028,-0.053Z" style="fill:rgb(48,74,57);fill-rule:nonzero;"/>
                        </g>
                        <g transform="matrix(258.333333,0,0,258.333333,34629.139901,4823.406964)">
                            <path d="M0.229,0.003L0.076,-0.337C0.068,-0.357 0.062,-0.372 0.058,-0.384C0.054,-0.396 0.051,-0.406 0.05,-0.414C0.048,-0.422 0.047,-0.43 0.045,-0.438L0.006,-0.436L0.006,-0.5L0.223,-0.5L0.223,-0.447C0.207,-0.447 0.197,-0.443 0.192,-0.434C0.187,-0.426 0.185,-0.415 0.188,-0.402C0.19,-0.388 0.194,-0.374 0.2,-0.358L0.26,-0.214C0.265,-0.202 0.271,-0.19 0.276,-0.176C0.281,-0.164 0.286,-0.15 0.291,-0.137L0.292,-0.137C0.297,-0.15 0.302,-0.163 0.306,-0.176C0.311,-0.189 0.316,-0.202 0.32,-0.215L0.375,-0.369C0.381,-0.385 0.387,-0.399 0.392,-0.41C0.397,-0.42 0.402,-0.43 0.407,-0.439L0.345,-0.436L0.345,-0.5L0.524,-0.5L0.524,-0.447C0.509,-0.446 0.496,-0.438 0.484,-0.425C0.473,-0.412 0.463,-0.397 0.454,-0.378C0.445,-0.36 0.437,-0.341 0.43,-0.322L0.301,0.003L0.229,0.003Z" style="fill:rgb(48,74,57);fill-rule:nonzero;"/>
                        </g>
                        <g transform="matrix(258.333333,0,0,258.333333,34760.631568,4823.406964)">
                            <path d="M0.281,0.016C0.233,0.016 0.19,0.005 0.153,-0.017C0.116,-0.038 0.087,-0.069 0.066,-0.108C0.045,-0.148 0.035,-0.195 0.035,-0.249C0.035,-0.296 0.045,-0.339 0.066,-0.38C0.087,-0.421 0.116,-0.454 0.154,-0.479C0.191,-0.503 0.235,-0.516 0.285,-0.516C0.313,-0.516 0.34,-0.512 0.366,-0.504C0.392,-0.496 0.415,-0.482 0.436,-0.464C0.457,-0.445 0.473,-0.421 0.485,-0.39C0.498,-0.36 0.503,-0.322 0.503,-0.278L0.167,-0.272C0.167,-0.231 0.172,-0.194 0.181,-0.163C0.191,-0.131 0.207,-0.106 0.229,-0.088C0.251,-0.069 0.28,-0.06 0.316,-0.06C0.332,-0.06 0.349,-0.063 0.367,-0.069C0.386,-0.074 0.404,-0.083 0.422,-0.094C0.44,-0.106 0.456,-0.12 0.47,-0.138L0.508,-0.103C0.486,-0.071 0.462,-0.047 0.435,-0.029C0.409,-0.012 0.382,-0 0.355,0.006C0.328,0.013 0.303,0.016 0.281,0.016ZM0.172,-0.332L0.38,-0.332C0.379,-0.359 0.376,-0.381 0.368,-0.4C0.361,-0.418 0.351,-0.432 0.338,-0.442C0.325,-0.451 0.308,-0.456 0.289,-0.456C0.257,-0.456 0.23,-0.445 0.211,-0.424C0.191,-0.402 0.178,-0.372 0.172,-0.332Z" style="fill:rgb(48,74,57);fill-rule:nonzero;"/>
                        </g>
                        <g transform="matrix(258.333333,0,0,258.333333,34899.873235,4823.406964)">
                        </g>
                        <g transform="matrix(258.333333,0,0,258.333333,34130.039901,5072.360183)">
                            <path d="M0.032,0.255L0.032,0.202C0.052,0.202 0.065,0.198 0.074,0.189C0.082,0.181 0.087,0.169 0.089,0.154C0.091,0.139 0.092,0.121 0.092,0.102L0.093,-0.341C0.093,-0.353 0.093,-0.365 0.093,-0.379C0.094,-0.393 0.095,-0.406 0.097,-0.42C0.086,-0.419 0.073,-0.418 0.06,-0.418C0.046,-0.418 0.035,-0.417 0.026,-0.416L0.026,-0.481C0.056,-0.481 0.081,-0.483 0.1,-0.486C0.119,-0.489 0.134,-0.493 0.144,-0.497C0.155,-0.501 0.163,-0.506 0.167,-0.51L0.21,-0.51C0.211,-0.503 0.212,-0.495 0.213,-0.486C0.213,-0.476 0.214,-0.468 0.215,-0.46C0.237,-0.479 0.26,-0.494 0.285,-0.503C0.309,-0.511 0.333,-0.516 0.356,-0.516C0.396,-0.516 0.431,-0.506 0.463,-0.485C0.494,-0.465 0.519,-0.436 0.537,-0.398C0.555,-0.361 0.564,-0.316 0.564,-0.265C0.564,-0.21 0.553,-0.162 0.532,-0.119C0.51,-0.077 0.481,-0.044 0.443,-0.02C0.405,0.004 0.362,0.016 0.314,0.016C0.294,0.016 0.276,0.014 0.26,0.009C0.244,0.005 0.229,-0 0.215,-0.007L0.215,0.112C0.215,0.123 0.215,0.136 0.214,0.15C0.214,0.165 0.213,0.18 0.211,0.194C0.222,0.193 0.233,0.192 0.245,0.192C0.257,0.191 0.267,0.191 0.275,0.191L0.275,0.255L0.032,0.255ZM0.303,-0.047C0.334,-0.048 0.359,-0.057 0.378,-0.075C0.397,-0.094 0.411,-0.118 0.419,-0.149C0.428,-0.179 0.432,-0.213 0.432,-0.249C0.432,-0.282 0.428,-0.313 0.419,-0.342C0.411,-0.371 0.398,-0.395 0.38,-0.413C0.362,-0.431 0.338,-0.44 0.308,-0.44C0.29,-0.439 0.272,-0.435 0.256,-0.426C0.239,-0.417 0.226,-0.406 0.215,-0.392C0.215,-0.377 0.215,-0.315 0.215,-0.298L0.215,-0.239C0.215,-0.218 0.215,-0.193 0.215,-0.166C0.215,-0.138 0.215,-0.107 0.215,-0.072C0.225,-0.065 0.238,-0.059 0.254,-0.054C0.269,-0.049 0.286,-0.047 0.303,-0.047Z" style="fill:rgb(48,74,57);fill-rule:nonzero;"/>
                        </g>
                        <g transform="matrix(258.333333,0,0,258.333333,34282.973235,5072.360183)">
                            <path d="M0.042,-0.053C0.061,-0.053 0.075,-0.057 0.083,-0.066C0.091,-0.074 0.096,-0.086 0.098,-0.101C0.1,-0.116 0.101,-0.134 0.101,-0.153L0.101,-0.341C0.101,-0.353 0.101,-0.365 0.102,-0.379C0.102,-0.393 0.103,-0.406 0.105,-0.42C0.094,-0.419 0.082,-0.419 0.068,-0.418C0.055,-0.418 0.044,-0.417 0.035,-0.417L0.035,-0.481L0.072,-0.481C0.099,-0.481 0.121,-0.484 0.139,-0.49C0.157,-0.497 0.17,-0.503 0.177,-0.51L0.219,-0.51C0.22,-0.502 0.221,-0.489 0.222,-0.472C0.223,-0.454 0.223,-0.437 0.223,-0.42C0.239,-0.44 0.255,-0.457 0.271,-0.471C0.287,-0.486 0.305,-0.497 0.322,-0.504C0.34,-0.512 0.358,-0.516 0.377,-0.516C0.398,-0.516 0.417,-0.51 0.434,-0.498C0.45,-0.486 0.458,-0.467 0.458,-0.44C0.458,-0.431 0.456,-0.422 0.452,-0.412C0.447,-0.402 0.441,-0.394 0.432,-0.387C0.423,-0.38 0.41,-0.377 0.395,-0.377C0.381,-0.377 0.368,-0.382 0.356,-0.391C0.343,-0.4 0.337,-0.414 0.336,-0.434C0.322,-0.435 0.307,-0.429 0.292,-0.419C0.278,-0.409 0.264,-0.396 0.252,-0.38C0.24,-0.365 0.231,-0.349 0.224,-0.333L0.225,-0.143C0.225,-0.132 0.224,-0.119 0.224,-0.104C0.223,-0.09 0.222,-0.075 0.221,-0.061C0.231,-0.062 0.243,-0.063 0.255,-0.064C0.267,-0.064 0.277,-0.064 0.285,-0.064L0.285,-0L0.042,-0L0.042,-0.053Z" style="fill:rgb(48,74,57);fill-rule:nonzero;"/>
                        </g>
                        <g transform="matrix(258.333333,0,0,258.333333,34398.706568,5072.360183)">
                            <path d="M0.288,0.016C0.24,0.016 0.197,0.006 0.159,-0.015C0.121,-0.036 0.09,-0.066 0.068,-0.104C0.045,-0.143 0.034,-0.188 0.034,-0.239C0.034,-0.293 0.046,-0.341 0.068,-0.383C0.091,-0.425 0.121,-0.457 0.16,-0.481C0.198,-0.504 0.24,-0.516 0.286,-0.516C0.334,-0.516 0.376,-0.505 0.414,-0.484C0.452,-0.463 0.482,-0.433 0.505,-0.395C0.527,-0.357 0.538,-0.312 0.538,-0.26C0.538,-0.206 0.527,-0.157 0.506,-0.116C0.484,-0.074 0.454,-0.042 0.417,-0.019C0.379,0.004 0.336,0.016 0.288,0.016ZM0.293,-0.045C0.323,-0.045 0.346,-0.055 0.362,-0.073C0.378,-0.092 0.389,-0.116 0.396,-0.145C0.402,-0.174 0.405,-0.203 0.405,-0.234C0.405,-0.26 0.403,-0.287 0.399,-0.313C0.394,-0.34 0.388,-0.364 0.378,-0.386C0.369,-0.407 0.357,-0.425 0.341,-0.438C0.326,-0.451 0.307,-0.457 0.285,-0.457C0.256,-0.456 0.233,-0.447 0.215,-0.428C0.198,-0.409 0.185,-0.386 0.178,-0.357C0.17,-0.328 0.166,-0.298 0.166,-0.266C0.166,-0.23 0.171,-0.195 0.179,-0.161C0.188,-0.126 0.202,-0.098 0.22,-0.077C0.239,-0.055 0.263,-0.044 0.293,-0.045Z" style="fill:rgb(48,74,57);fill-rule:nonzero;"/>
                        </g>
                        <g transform="matrix(258.333333,0,0,258.333333,34543.631568,5072.360183)">
                            <path d="M0.067,-0.585C0.067,-0.597 0.067,-0.609 0.068,-0.623C0.068,-0.636 0.069,-0.65 0.07,-0.665C0.059,-0.664 0.047,-0.663 0.034,-0.663C0.02,-0.663 0.009,-0.662 0,-0.661L0,-0.726C0.031,-0.726 0.056,-0.728 0.075,-0.731C0.095,-0.734 0.11,-0.738 0.121,-0.742C0.132,-0.746 0.14,-0.751 0.144,-0.755L0.19,-0.755L0.19,-0.46C0.211,-0.48 0.234,-0.494 0.258,-0.503C0.282,-0.512 0.306,-0.516 0.33,-0.516C0.371,-0.516 0.408,-0.506 0.439,-0.485C0.471,-0.464 0.496,-0.435 0.514,-0.397C0.532,-0.359 0.541,-0.314 0.541,-0.263C0.541,-0.208 0.53,-0.16 0.509,-0.118C0.487,-0.076 0.458,-0.043 0.421,-0.019C0.384,0.004 0.341,0.016 0.292,0.016C0.272,0.016 0.249,0.012 0.222,0.004C0.194,-0.004 0.169,-0.02 0.146,-0.044L0.118,-0L0.067,-0L0.067,-0.585ZM0.19,-0.152C0.19,-0.125 0.194,-0.104 0.203,-0.089C0.212,-0.074 0.223,-0.063 0.236,-0.057C0.25,-0.05 0.264,-0.047 0.278,-0.046C0.309,-0.046 0.334,-0.055 0.353,-0.073C0.372,-0.091 0.386,-0.115 0.395,-0.145C0.404,-0.176 0.408,-0.209 0.408,-0.244C0.408,-0.28 0.404,-0.313 0.395,-0.342C0.387,-0.372 0.373,-0.396 0.355,-0.414C0.337,-0.431 0.313,-0.44 0.284,-0.44C0.266,-0.439 0.248,-0.435 0.232,-0.426C0.215,-0.418 0.201,-0.406 0.19,-0.392L0.19,-0.152Z" style="fill:rgb(48,74,57);fill-rule:nonzero;"/>
                        </g>
                        <g transform="matrix(258.333333,0,0,258.333333,34689.589901,5072.360183)">
                            <path d="M0.028,-0.053C0.047,-0.053 0.061,-0.057 0.069,-0.066C0.078,-0.074 0.083,-0.086 0.084,-0.101C0.086,-0.116 0.087,-0.134 0.087,-0.153L0.087,-0.585C0.087,-0.597 0.087,-0.609 0.088,-0.623C0.088,-0.636 0.089,-0.65 0.091,-0.665C0.08,-0.664 0.067,-0.663 0.054,-0.663C0.04,-0.663 0.029,-0.662 0.02,-0.661L0.02,-0.726C0.051,-0.726 0.076,-0.728 0.096,-0.731C0.115,-0.734 0.13,-0.738 0.141,-0.742C0.152,-0.746 0.16,-0.751 0.165,-0.755L0.21,-0.755L0.211,-0.143C0.211,-0.132 0.21,-0.119 0.21,-0.104C0.209,-0.09 0.208,-0.075 0.206,-0.061C0.217,-0.062 0.229,-0.063 0.241,-0.064C0.253,-0.064 0.263,-0.064 0.271,-0.064L0.271,-0L0.028,-0L0.028,-0.053Z" style="fill:rgb(48,74,57);fill-rule:nonzero;"/>
                        </g>
                        <g transform="matrix(258.333333,0,0,258.333333,34764.764901,5072.360183)">
                            <path d="M0.281,0.016C0.233,0.016 0.19,0.005 0.153,-0.017C0.116,-0.038 0.087,-0.069 0.066,-0.108C0.045,-0.148 0.035,-0.195 0.035,-0.249C0.035,-0.296 0.045,-0.339 0.066,-0.38C0.087,-0.421 0.116,-0.454 0.154,-0.479C0.191,-0.503 0.235,-0.516 0.285,-0.516C0.313,-0.516 0.34,-0.512 0.366,-0.504C0.392,-0.496 0.415,-0.482 0.436,-0.464C0.457,-0.445 0.473,-0.421 0.485,-0.39C0.498,-0.36 0.503,-0.322 0.503,-0.278L0.167,-0.272C0.167,-0.231 0.172,-0.194 0.181,-0.163C0.191,-0.131 0.207,-0.106 0.229,-0.088C0.251,-0.069 0.28,-0.06 0.316,-0.06C0.332,-0.06 0.349,-0.063 0.367,-0.069C0.386,-0.074 0.404,-0.083 0.422,-0.094C0.44,-0.106 0.456,-0.12 0.47,-0.138L0.508,-0.103C0.486,-0.071 0.462,-0.047 0.435,-0.029C0.409,-0.012 0.382,-0 0.355,0.006C0.328,0.013 0.303,0.016 0.281,0.016ZM0.172,-0.332L0.38,-0.332C0.379,-0.359 0.376,-0.381 0.368,-0.4C0.361,-0.418 0.351,-0.432 0.338,-0.442C0.325,-0.451 0.308,-0.456 0.289,-0.456C0.257,-0.456 0.23,-0.445 0.211,-0.424C0.191,-0.402 0.178,-0.372 0.172,-0.332Z" style="fill:rgb(48,74,57);fill-rule:nonzero;"/>
                        </g>
                        <g transform="matrix(258.333333,0,0,258.333333,34901.939901,5072.360183)">
                            <path d="M0.042,-0L0.042,-0.053C0.061,-0.053 0.075,-0.057 0.083,-0.066C0.091,-0.074 0.096,-0.086 0.098,-0.101C0.1,-0.116 0.101,-0.134 0.101,-0.153L0.101,-0.341C0.101,-0.353 0.101,-0.365 0.102,-0.379C0.102,-0.393 0.103,-0.406 0.105,-0.42C0.094,-0.419 0.082,-0.418 0.068,-0.418C0.055,-0.418 0.044,-0.417 0.035,-0.416L0.035,-0.481C0.065,-0.481 0.09,-0.483 0.109,-0.486C0.128,-0.489 0.143,-0.493 0.154,-0.497C0.164,-0.501 0.172,-0.506 0.177,-0.51L0.219,-0.51C0.22,-0.503 0.221,-0.495 0.222,-0.486C0.222,-0.476 0.222,-0.467 0.223,-0.459C0.245,-0.476 0.269,-0.49 0.295,-0.501C0.321,-0.511 0.346,-0.516 0.371,-0.516C0.402,-0.516 0.428,-0.51 0.449,-0.499C0.47,-0.488 0.487,-0.471 0.499,-0.45C0.523,-0.469 0.549,-0.485 0.578,-0.497C0.607,-0.51 0.636,-0.516 0.663,-0.516C0.718,-0.516 0.76,-0.5 0.787,-0.468C0.815,-0.435 0.828,-0.38 0.828,-0.303L0.828,-0.143C0.828,-0.132 0.827,-0.119 0.827,-0.104C0.826,-0.09 0.825,-0.075 0.824,-0.061C0.834,-0.062 0.846,-0.063 0.858,-0.064C0.87,-0.064 0.88,-0.064 0.888,-0.064L0.888,-0L0.651,-0L0.651,-0.053C0.668,-0.053 0.681,-0.057 0.688,-0.066C0.695,-0.074 0.7,-0.086 0.702,-0.101C0.703,-0.116 0.704,-0.134 0.704,-0.153L0.704,-0.302C0.704,-0.35 0.696,-0.384 0.681,-0.405C0.666,-0.426 0.644,-0.436 0.616,-0.436C0.597,-0.437 0.58,-0.433 0.563,-0.426C0.546,-0.418 0.531,-0.409 0.518,-0.398C0.521,-0.386 0.523,-0.372 0.525,-0.357C0.526,-0.342 0.527,-0.327 0.527,-0.31C0.527,-0.282 0.527,-0.254 0.527,-0.227C0.527,-0.199 0.527,-0.171 0.526,-0.143C0.526,-0.132 0.526,-0.119 0.525,-0.104C0.525,-0.09 0.524,-0.075 0.522,-0.061C0.533,-0.062 0.544,-0.063 0.556,-0.064C0.568,-0.064 0.578,-0.064 0.587,-0.064L0.587,-0L0.347,-0L0.347,-0.053C0.365,-0.053 0.378,-0.057 0.386,-0.066C0.393,-0.074 0.398,-0.086 0.4,-0.101C0.402,-0.116 0.403,-0.134 0.403,-0.153L0.403,-0.304C0.403,-0.352 0.396,-0.386 0.382,-0.407C0.367,-0.427 0.346,-0.437 0.318,-0.438C0.3,-0.438 0.283,-0.434 0.267,-0.426C0.25,-0.418 0.236,-0.408 0.224,-0.397C0.224,-0.389 0.224,-0.355 0.224,-0.346L0.224,-0.143C0.224,-0.132 0.224,-0.119 0.224,-0.104C0.223,-0.09 0.222,-0.075 0.22,-0.061C0.231,-0.062 0.242,-0.063 0.253,-0.064C0.264,-0.064 0.273,-0.064 0.281,-0.064L0.281,-0L0.042,-0Z" style="fill:rgb(48,74,57);fill-rule:nonzero;"/>
                        </g>
                        <g transform="matrix(258.333333,0,0,258.333333,35135.214901,5072.360183)">
                            <path d="M0.264,0.016C0.233,0.016 0.205,0.012 0.178,0.004C0.151,-0.004 0.13,-0.013 0.114,-0.025L0.117,0.007L0.052,0.007L0.047,-0.165L0.101,-0.165C0.103,-0.143 0.111,-0.122 0.125,-0.104C0.139,-0.085 0.157,-0.071 0.179,-0.061C0.202,-0.05 0.227,-0.045 0.254,-0.045C0.267,-0.045 0.28,-0.047 0.292,-0.051C0.305,-0.055 0.315,-0.062 0.324,-0.071C0.332,-0.08 0.336,-0.091 0.336,-0.105C0.336,-0.119 0.331,-0.131 0.322,-0.141C0.312,-0.15 0.299,-0.159 0.281,-0.167C0.264,-0.175 0.243,-0.183 0.22,-0.192C0.199,-0.2 0.179,-0.209 0.158,-0.217C0.137,-0.226 0.118,-0.236 0.101,-0.249C0.083,-0.261 0.069,-0.276 0.059,-0.294C0.049,-0.312 0.043,-0.334 0.043,-0.36C0.043,-0.378 0.047,-0.396 0.053,-0.414C0.06,-0.432 0.071,-0.449 0.085,-0.465C0.099,-0.48 0.118,-0.492 0.141,-0.502C0.164,-0.511 0.193,-0.516 0.226,-0.516C0.244,-0.516 0.264,-0.513 0.287,-0.507C0.309,-0.502 0.329,-0.492 0.347,-0.479L0.346,-0.511L0.411,-0.511L0.411,-0.335L0.357,-0.335C0.354,-0.358 0.347,-0.379 0.335,-0.397C0.324,-0.416 0.309,-0.43 0.29,-0.441C0.271,-0.452 0.249,-0.457 0.223,-0.457C0.202,-0.457 0.184,-0.452 0.169,-0.441C0.154,-0.431 0.147,-0.416 0.147,-0.396C0.147,-0.379 0.152,-0.365 0.164,-0.355C0.175,-0.344 0.191,-0.335 0.21,-0.328C0.229,-0.321 0.25,-0.313 0.273,-0.304C0.304,-0.293 0.333,-0.28 0.358,-0.266C0.384,-0.252 0.404,-0.234 0.42,-0.213C0.435,-0.192 0.443,-0.167 0.443,-0.136C0.443,-0.101 0.434,-0.073 0.417,-0.051C0.4,-0.028 0.377,-0.012 0.35,-0.001C0.323,0.011 0.294,0.016 0.264,0.016Z" style="fill:rgb(48,74,57);fill-rule:nonzero;"/>
                        </g>
                        <g transform="matrix(258.333333,0,0,258.333333,35256.631568,5072.360183)">
                            <path d="M0.119,0.016C0.099,0.016 0.083,0.009 0.07,-0.005C0.057,-0.02 0.051,-0.037 0.051,-0.057C0.051,-0.078 0.058,-0.095 0.071,-0.109C0.085,-0.124 0.101,-0.131 0.119,-0.131C0.138,-0.131 0.154,-0.124 0.167,-0.109C0.18,-0.095 0.186,-0.078 0.186,-0.057C0.186,-0.037 0.18,-0.02 0.167,-0.005C0.155,0.009 0.139,0.016 0.119,0.016Z" style="fill:rgb(48,74,57);fill-rule:nonzero;"/>
                        </g>
                        <g transform="matrix(258.333333,0,0,258.333333,35317.856568,5072.360183)">
                        </g>
                    </g>
                </g>
                <g transform="matrix(0.813835,0,0,1.070815,1293.471969,-319.793303)">
                    <g opacity="0.37">
                        <g transform="matrix(1.353661,0,0,0.148817,-40622.488325,3722.646332)">
                            <rect x="36825.033" y="1027.473" width="239.035" height="25.632" style="fill:rgb(134,149,116);"/>
                        </g>
                        <g transform="matrix(1.353661,0,0,0.077702,-40622.488325,3801.183165)">
                            <rect x="36825.033" y="1027.473" width="239.035" height="25.632" style="fill:rgb(134,149,116);"/>
                        </g>
                        <g transform="matrix(1.353661,0,0,0.226705,-40622.488325,3651.559393)">
                            <rect x="36825.033" y="1027.473" width="239.035" height="25.632" style="fill:rgb(134,149,116);"/>
                        </g>
                        <g transform="matrix(1.353661,0,0,0.053997,-40622.488325,3835.260882)">
                            <rect x="36825.033" y="1027.473" width="239.035" height="25.632" style="fill:rgb(134,149,116);"/>
                        </g>
                        <g transform="matrix(1.353661,0,0,0.053997,-40622.488325,3837.170487)">
                            <rect x="36825.033" y="1027.473" width="239.035" height="25.632" style="fill:rgb(134,149,116);"/>
                        </g>
                        <g transform="matrix(1.353661,0,0,0.175908,-40622.488325,3714.092803)">
                            <rect x="36825.033" y="1027.473" width="239.035" height="25.632" style="fill:rgb(134,149,116);"/>
                        </g>
                        <g transform="matrix(1.353661,0,0,0.175908,-40622.488325,3719.561222)">
                            <rect x="36825.033" y="1027.473" width="239.035" height="25.632" style="fill:rgb(134,149,116);"/>
                        </g>
                        <g transform="matrix(1.353661,0,0,0.02352,-40622.488325,3881.679285)">
                            <rect x="36825.033" y="1027.473" width="239.035" height="25.632" style="fill:rgb(134,149,116);"/>
                        </g>
                        <g transform="matrix(1.353661,0,0,0.081089,-40622.488325,3823.74381)">
                            <rect x="36825.033" y="1027.473" width="239.035" height="25.632" style="fill:rgb(134,149,116);"/>
                        </g>
                        <g transform="matrix(1.353661,0,0,0.02352,-40622.488325,3886.106099)">
                            <rect x="36825.033" y="1027.473" width="239.035" height="25.632" style="fill:rgb(134,149,116);"/>
                        </g>
                        <g transform="matrix(1.353661,0,0,0.33507,-40622.488325,3567.645998)">
                            <rect x="36825.033" y="1027.473" width="239.035" height="25.632" style="fill:rgb(134,149,116);"/>
                        </g>
                        <g transform="matrix(1.353661,0,0,-0.175908,-40622.488325,4157.874433)">
                            <rect x="36825.033" y="1027.473" width="239.035" height="25.632" style="fill:rgb(134,149,116);"/>
                        </g>
                        <g transform="matrix(1.353661,0,0,-0.141906,-40622.488325,4141.057414)">
                            <rect x="36825.033" y="1027.473" width="239.035" height="25.632" style="fill:rgb(134,149,116);"/>
                        </g>
                        <g transform="matrix(1.353661,0,0,-0.02352,-40622.488325,3995.75637)">
                            <rect x="36825.033" y="1027.473" width="239.035" height="25.632" style="fill:rgb(134,149,116);"/>
                        </g>
                        <g transform="matrix(1.353661,0,0,-0.018973,-40622.488325,4010.276156)">
                            <rect x="36825.033" y="1027.473" width="239.035" height="25.632" style="fill:rgb(134,149,116);"/>
                        </g>
                        <g transform="matrix(1.353661,0,0,-0.081089,-40622.488325,4053.691845)">
                            <rect x="36825.033" y="1027.473" width="239.035" height="25.632" style="fill:rgb(134,149,116);"/>
                        </g>
                        <g transform="matrix(1.353661,0,0,-0.065415,-40622.488325,4057.012924)">
                            <rect x="36825.033" y="1027.473" width="239.035" height="25.632" style="fill:rgb(134,149,116);"/>
                        </g>
                        <g transform="matrix(1.353661,0,0,-0.02352,-40622.488325,3991.329555)">
                            <rect x="36825.033" y="1027.473" width="239.035" height="25.632" style="fill:rgb(134,149,116);"/>
                        </g>
                        <g transform="matrix(1.353661,0,0,-0.018973,-40622.488325,4006.705028)">
                            <rect x="36825.033" y="1027.473" width="239.035" height="25.632" style="fill:rgb(134,149,116);"/>
                        </g>
                        <g transform="matrix(1.353661,0,0,-0.33507,-40622.488325,4309.789657)">
                            <rect x="36825.033" y="1027.473" width="239.035" height="25.632" style="fill:rgb(134,149,116);"/>
                        </g>
                        <g transform="matrix(1.353661,0,0,-0.270302,-40622.488325,4263.608003)">
                            <rect x="36825.033" y="1027.473" width="239.035" height="25.632" style="fill:rgb(134,149,116);"/>
                        </g>
                        <g transform="matrix(1.353661,0,0,0.220778,-40622.488325,3697.337915)">
                            <rect x="36825.033" y="1027.473" width="239.035" height="25.632" style="fill:rgb(134,149,116);"/>
                        </g>
                        <g transform="matrix(1.353661,0,0,0.106487,-40622.488325,3821.279311)">
                            <rect x="36825.033" y="1027.473" width="239.035" height="25.632" style="fill:rgb(134,149,116);"/>
                        </g>
                        <g transform="matrix(1.353661,0,0,0.06839,-40622.488325,3864.003614)">
                            <rect x="36825.033" y="1027.473" width="239.035" height="25.632" style="fill:rgb(134,149,116);"/>
                        </g>
                        <g transform="matrix(1.353661,0,0,0.171604,-40622.488325,3762.5402)">
                            <rect x="36825.033" y="1027.473" width="239.035" height="25.632" style="fill:rgb(134,149,116);"/>
                        </g>
                        <g transform="matrix(1.353661,0,0,0.108109,-40622.488325,3833.313371)">
                            <rect x="36825.033" y="1027.473" width="239.035" height="25.632" style="fill:rgb(134,149,116);"/>
                        </g>
                        <g transform="matrix(1.353661,0,0,0.026653,-40622.488325,3920.261719)">
                            <rect x="36825.033" y="1027.473" width="239.035" height="25.632" style="fill:rgb(134,149,116);"/>
                        </g>
                        <g transform="matrix(1.353661,0,0,0.111314,-40622.488325,3836.834229)">
                            <rect x="36825.033" y="1027.473" width="239.035" height="25.632" style="fill:rgb(134,149,116);"/>
                        </g>
                    </g>
                </g>
            </g>
        </g>
    </g>
</svg>
